<?xml version="1.0" standalone="no"?>
<!DOCTYPE svg PUBLIC "-//W3C//DTD SVG 20010904//EN"
 "http://www.w3.org/TR/2001/REC-SVG-20010904/DTD/svg10.dtd">
<svg version="1.0" xmlns="http://www.w3.org/2000/svg"
 width="1024.000000pt" height="1024.000000pt" viewBox="0 0 1024.000000 1024.000000"
 preserveAspectRatio="xMidYMid meet">

<g transform="translate(0.000000,1024.000000) scale(0.100000,-0.100000)"
fill="#000000" stroke="none">
<path d="M5206 6328 c-23 -6 -40 -18 -43 -29 -6 -22 -21 -25 -29 -5 -14 37
-116 46 -180 17 -97 -44 -130 -163 -74 -269 30 -59 227 -242 260 -242 9 0 51
34 93 75 43 41 81 75 86 75 5 0 14 13 20 29 7 15 25 38 41 49 36 27 53 80 48
147 -9 109 -115 182 -222 153z m-101 -158 c22 -11 47 -20 56 -20 9 0 24 9 34
20 25 27 49 25 63 -5 21 -47 14 -66 -51 -129 l-63 -61 -62 61 c-53 51 -62 66
-62 95 0 35 14 59 35 59 6 0 28 -9 50 -20z"/>
<path d="M4193 6078 c-66 -47 -63 -8 -63 -869 0 -855 -3 -809 60 -863 18 -14
42 -26 56 -26 43 0 114 24 118 40 26 90 28 149 20 445 -11 384 -11 399 -1 843
l9 363 -45 44 c-37 38 -51 45 -83 45 -25 0 -51 -8 -71 -22z"/>
<path d="M5970 6093 c-31 -11 -71 -58 -81 -95 -7 -26 -6 -144 1 -376 7 -203 9
-512 5 -777 -6 -433 -6 -441 14 -473 12 -18 37 -40 56 -49 31 -15 40 -15 68
-4 18 7 44 16 59 18 23 4 30 13 39 47 8 29 11 275 12 833 0 727 -2 794 -17
818 -33 51 -104 77 -156 58z"/>
<path d="M3810 5823 c-19 -10 -44 -32 -56 -50 -20 -31 -21 -38 -17 -385 3
-194 0 -425 -4 -513 -5 -88 -6 -175 -2 -194 10 -47 38 -82 82 -104 32 -16 44
-17 90 -7 47 9 56 15 73 48 18 35 19 67 22 577 2 522 2 541 -17 572 -40 64
-111 87 -171 56z"/>
<path d="M6351 5828 c-13 -7 -38 -30 -55 -51 l-31 -39 -3 -516 c-2 -334 1
-530 7 -552 6 -20 26 -51 46 -70 29 -29 42 -34 76 -33 22 1 56 11 75 22 20 12
34 16 34 9 0 -32 16 12 26 69 9 51 8 124 -3 312 -12 196 -13 281 -4 421 15
239 14 325 -4 360 -31 59 -115 94 -164 68z"/>
<path d="M3462 5490 c-56 -34 -62 -64 -62 -295 0 -223 4 -243 56 -284 32 -25
101 -28 143 -6 29 14 29 16 36 132 4 65 5 188 2 273 -6 151 -7 156 -32 178
-34 29 -97 30 -143 2z"/>
<path d="M6680 5497 c-47 -24 -50 -43 -48 -310 l3 -249 28 -24 c32 -27 75 -31
137 -12 50 16 58 37 70 188 15 187 13 300 -8 340 -34 68 -119 99 -182 67z"/>
<path d="M4630 5463 c-34 -3 -53 -12 -78 -36 -60 -57 -66 -78 -67 -227 0 -120
3 -141 23 -185 43 -94 -20 -85 628 -85 l572 0 25 43 c44 75 71 279 47 352 -17
53 -84 122 -129 135 -34 9 -915 12 -1021 3z m981 -212 c24 -29 24 -82 2 -110
-18 -21 -23 -21 -481 -22 -337 0 -467 3 -478 11 -20 18 -28 76 -14 110 l12 30
287 3 c157 2 369 3 470 2 179 -1 184 -2 202 -24z"/>
</g>
</svg>
